<svg width="8" height="8" viewBox="0 0 8 8" fill="none" xmlns="http://www.w3.org/2000/svg">
<path d="M6.12969 0.132812H1.22969C0.95121 0.132812 0.684139 0.271093 0.487225 0.517235C0.290312 0.763376 0.179688 1.09722 0.179688 1.44531V5.82031C0.179688 6.16841 0.290312 6.50225 0.487225 6.74839C0.684139 6.99453 0.95121 7.13281 1.22969 7.13281H6.12969C6.40816 7.13281 6.67524 6.99453 6.87215 6.74839C7.06906 6.50225 7.17969 6.16841 7.17969 5.82031V1.44531C7.17969 1.09722 7.06906 0.763376 6.87215 0.517235C6.67524 0.271093 6.40816 0.132813 6.12969 0.132812ZM6.12969 1.00781L3.85469 2.96344C3.80148 3.00184 3.74113 3.02205 3.67969 3.02205C3.61825 3.02205 3.55789 3.00184 3.50469 2.96344L1.22969 1.00781H6.12969Z" fill="#7F1FCA"/>
</svg>
