<svg width="8" height="8" viewBox="0 0 8 8" fill="none" xmlns="http://www.w3.org/2000/svg">
<path d="M3.64261 2.6844C2.99994 2.6844 2.47547 3.20888 2.47547 3.85156C2.47547 4.49425 2.99994 5.01873 3.64261 5.01873C4.28529 5.01873 4.80976 4.49425 4.80976 3.85156C4.80976 3.20888 4.28529 2.6844 3.64261 2.6844ZM7.14316 3.85156C7.14316 3.36824 7.14754 2.88929 7.1204 2.40684C7.09326 1.84646 6.96542 1.34912 6.55565 0.939345C6.14501 0.528692 5.64856 0.401732 5.08819 0.374588C4.60487 0.347445 4.12593 0.351823 3.64349 0.351823C3.16017 0.351823 2.68123 0.347445 2.19879 0.374588C1.63842 0.401732 1.1411 0.529568 0.731326 0.939345C0.320681 1.35 0.193723 1.84646 0.16658 2.40684C0.139437 2.89016 0.143815 3.36911 0.143815 3.85156C0.143815 4.33401 0.139437 4.81384 0.16658 5.29629C0.193723 5.85667 0.321557 6.354 0.731326 6.76378C1.14197 7.17443 1.63842 7.30139 2.19879 7.32854C2.68211 7.35568 3.16105 7.3513 3.64349 7.3513C4.12681 7.3513 4.60575 7.35568 5.08819 7.32854C5.64856 7.30139 6.14588 7.17356 6.55565 6.76378C6.9663 6.35313 7.09326 5.85667 7.1204 5.29629C7.14842 4.81384 7.14316 4.33489 7.14316 3.85156V3.85156ZM3.64261 5.6474C2.64884 5.6474 1.84681 4.84536 1.84681 3.85156C1.84681 2.85777 2.64884 2.05572 3.64261 2.05572C4.63639 2.05572 5.43842 2.85777 5.43842 3.85156C5.43842 4.84536 4.63639 5.6474 3.64261 5.6474ZM5.51197 2.40158C5.27994 2.40158 5.09257 2.21421 5.09257 1.98217C5.09257 1.75014 5.27994 1.56277 5.51197 1.56277C5.74399 1.56277 5.93137 1.75014 5.93137 1.98217C5.93144 2.03727 5.92064 2.09184 5.89958 2.14276C5.87853 2.19367 5.84764 2.23994 5.80868 2.2789C5.76972 2.31785 5.72346 2.34875 5.67255 2.3698C5.62163 2.39085 5.56706 2.40165 5.51197 2.40158V2.40158Z" fill="#7F1FCA"/>
</svg>
