<svg width="7" height="7" viewBox="0 0 7 7" fill="none" xmlns="http://www.w3.org/2000/svg">
<path d="M1.37174 0C0.61739 0 0 0.617376 0 1.37174V5.62849C0 6.38283 0.617376 7 1.37174 7H5.62849C6.38284 7 7 6.38284 7 5.62849V1.37174C7 0.61739 6.38284 0 5.62849 0H1.37174ZM1.71675 1.15514C2.07845 1.15514 2.30123 1.39259 2.30811 1.70471C2.30811 2.00993 2.07843 2.25405 1.70976 2.25405H1.70297C1.34816 2.25405 1.11883 2.00995 1.11883 1.70471C1.11883 1.39259 1.3551 1.15514 1.71674 1.15514H1.71675ZM4.83367 2.61395C5.52928 2.61395 6.05074 3.0686 6.05074 4.04563V5.86957H4.9936V4.16791C4.9936 3.74031 4.84061 3.44857 4.45804 3.44857C4.16598 3.44857 3.9919 3.64521 3.91547 3.83516C3.88755 3.90311 3.88068 3.99803 3.88068 4.09309V5.86957H2.82355C2.82355 5.86957 2.83742 2.98702 2.82355 2.68854H3.8809V3.13901C4.02138 2.92227 4.27267 2.61394 4.83367 2.61394V2.61395ZM1.18119 2.68878H2.23832V5.86958H1.18119V2.68878Z" fill="#7F1FCA"/>
</svg>
