<svg width="20" height="20" viewBox="0 0 20 20" fill="none" xmlns="http://www.w3.org/2000/svg">
<path d="M14.0313 3.15625L19.875 8L17.75 12.2813L14.25 11.3125H11.1875L14.0313 3.15625Z" fill="url(#paint0_linear_2_104)"/>
<path d="M8.125 6.3125L7 12.2812L6.90625 14.3438L4.03125 15.5625L0 16L1.21875 3.0625L8.5625 0L13.0625 2.96875L8.125 6.3125Z" fill="url(#paint1_linear_2_104)"/>
<path d="M8.125 6.3125L8.6875 17.8437L6.84375 20L0 16L5.625 7.59375L8.125 6.3125Z" fill="url(#paint2_linear_2_104)"/>
<path d="M15.6875 5.46875H8.75L14.875 0L15.6875 5.46875Z" fill="url(#paint3_linear_2_104)"/>
<path d="M20 17.875L13.9062 19.9688L5.78125 17.6875L8.125 6.3125L9.0625 5.46875L14.0312 5L13.5625 9.96875L17.5 8.4375L20 17.875Z" fill="url(#paint4_linear_2_104)"/>
<path d="M3.75 3.75H16.25V16.25H3.75V3.75Z" fill="black"/>
<path d="M4.9375 13.9063H9.625V14.6875H4.9375V13.9063ZM4.90625 5.37501H7.03125C8.28125 5.37501 9 6.09376 9 7.15626C9 8.34376 8.0625 8.96876 6.90625 8.96876H6.03125V10.5313H4.90625V5.37501ZM7.84375 7.21876C7.84375 6.71876 7.5 6.43751 6.90625 6.43751H6.03125V8.03126H6.9375C7.55156 8.03126 7.84375 7.65626 7.84375 7.21876ZM9.4375 8.00001C9.4296 7.64492 9.49372 7.29191 9.62599 6.96228C9.75825 6.63265 9.95592 6.33322 10.2071 6.08208C10.4582 5.83093 10.7576 5.63326 11.0873 5.50099C11.4169 5.36873 11.7699 5.30461 12.125 5.31251C13.0937 5.31251 13.6875 5.62501 14.1562 6.12501L13.4375 6.96876C13.0312 6.59376 12.625 6.37501 12.125 6.37501C11.25 6.37501 10.625 7.09376 10.625 8.00001C10.625 8.87501 11.25 9.62501 12.125 9.62501C12.7187 9.62501 13.0938 9.37501 13.5 9.03126L14.2188 9.75001C13.6875 10.3125 13.0938 10.6875 12.0938 10.6875C11.7423 10.6875 11.3943 10.6178 11.07 10.4824C10.7457 10.3469 10.4514 10.1485 10.2044 9.89849C9.95729 9.64852 9.76229 9.35199 9.63065 9.02611C9.49902 8.70022 9.43337 8.35145 9.4375 8.00001Z" fill="white"/>
<defs>
<linearGradient id="paint0_linear_2_104" x1="7.14217" y1="7.71875" x2="19.0453" y2="7.71875" gradientUnits="userSpaceOnUse">
<stop stop-color="#21D789"/>
<stop offset="1" stop-color="#07C3F2"/>
</linearGradient>
<linearGradient id="paint1_linear_2_104" x1="-7.01404" y1="16.8797" x2="19.8837" y2="3.64492" gradientUnits="userSpaceOnUse">
<stop offset="0.01" stop-color="#FCF84A"/>
<stop offset="0.11" stop-color="#A7EB62"/>
<stop offset="0.21" stop-color="#5FE077"/>
<stop offset="0.27" stop-color="#32DA84"/>
<stop offset="0.31" stop-color="#21D789"/>
<stop offset="0.58" stop-color="#21D789"/>
<stop offset="0.6" stop-color="#21D789"/>
<stop offset="0.69" stop-color="#20D68C"/>
<stop offset="0.76" stop-color="#1ED497"/>
<stop offset="0.83" stop-color="#19D1A9"/>
<stop offset="0.9" stop-color="#13CCC2"/>
<stop offset="0.97" stop-color="#0BC6E1"/>
<stop offset="1" stop-color="#07C3F2"/>
</linearGradient>
<linearGradient id="paint2_linear_2_104" x1="2.66715" y1="22.1844" x2="10.4816" y2="12.306" gradientUnits="userSpaceOnUse">
<stop stop-color="#21D789"/>
<stop offset="0.16" stop-color="#24D788"/>
<stop offset="0.3" stop-color="#2FD886"/>
<stop offset="0.44" stop-color="#41DA82"/>
<stop offset="0.56" stop-color="#5ADC7D"/>
<stop offset="0.69" stop-color="#7AE077"/>
<stop offset="0.81" stop-color="#A1E36E"/>
<stop offset="0.93" stop-color="#CFE865"/>
<stop offset="1" stop-color="#F1EB5E"/>
</linearGradient>
<linearGradient id="paint3_linear_2_104" x1="8.0797" y1="11.0328" x2="14.2" y2="-2.20915" gradientUnits="userSpaceOnUse">
<stop stop-color="#21D789"/>
<stop offset="0.06" stop-color="#24D788"/>
<stop offset="0.11" stop-color="#2FD886"/>
<stop offset="0.16" stop-color="#41DA82"/>
<stop offset="0.21" stop-color="#5ADD7D"/>
<stop offset="0.25" stop-color="#79E077"/>
<stop offset="0.26" stop-color="#7CE076"/>
<stop offset="0.5" stop-color="#8CE173"/>
<stop offset="0.92" stop-color="#B2E56B"/>
</linearGradient>
<linearGradient id="paint4_linear_2_104" x1="21.6828" y1="12.5562" x2="3.75921" y2="12.4054" gradientUnits="userSpaceOnUse">
<stop offset="0.39" stop-color="#FCF84A"/>
<stop offset="0.54" stop-color="#ECF451"/>
<stop offset="0.83" stop-color="#C2E964"/>
<stop offset="0.92" stop-color="#B2E56B"/>
</linearGradient>
</defs>
</svg>
